<?xml version="1.0" encoding="utf-8"?><svg viewBox="0 0 66 53" xmlns="http://www.w3.org/2000/svg" xmlns:xlink="http://www.w3.org/1999/xlink"><style>:root>svg{display:none}:root>svg:target{display:block}</style><svg fill="none" viewBox="0 0 26 26" id="close" xmlns="http://www.w3.org/2000/svg"><path fill-rule="evenodd" clip-rule="evenodd" d="M14.436 13 25.703 1.734A1.016 1.016 0 1 0 24.265.297L13 11.564 1.734.297A1.016 1.016 0 1 0 .297 1.734L11.564 13 .297 24.266a1.016 1.016 0 0 0 1.437 1.437L13 14.436l11.266 11.267a1.013 1.013 0 0 0 1.437 0 1.016 1.016 0 0 0 0-1.437L14.436 13Z" fill="#363838"/></svg><svg fill="none" viewBox="0 0 26 24" id="featur_icon_1" xmlns="http://www.w3.org/2000/svg"><path d="m7.646 13.609 3.774-3.773-8.254-8.24c-.64-.64-1.746-.467-2.146.36a5.355 5.355 0 0 0 1.04 6.08l5.586 5.573Zm9.04-2.414c2.04.947 4.907.28 7.027-1.84 2.547-2.546 3.04-6.2 1.08-8.16-1.947-1.946-5.6-1.466-8.16 1.08-2.12 2.12-2.787 4.987-1.84 7.027l-12.08 12.08a1.33 1.33 0 1 0 1.88 1.88l8.253-8.226 8.24 8.24a1.328 1.328 0 0 0 2.169-.432 1.33 1.33 0 0 0-.289-1.449l-8.24-8.24 1.96-1.96Z" fill="#02E4C0"/></svg><svg fill="none" viewBox="0 0 30 30" id="featur_icon_2" xmlns="http://www.w3.org/2000/svg"><path d="M12.55 13.395c1.478 2.46 1.261 5.355-.508 6.525-1.769 1.14-4.408.075-5.901-2.385-1.48-2.46-1.247-5.385.521-6.525 1.77-1.14 4.408-.075 5.888 2.385ZM15 23.625c2.9 0 3.625-1.125 3.625-1.125s-.725 3-3.625 3-3.625-2.955-3.625-3c0 0 .725 1.125 3.625 1.125Zm8.337-12.615c1.77 1.14 2.002 4.065.523 6.525-1.494 2.46-4.133 3.525-5.902 2.385-1.769-1.17-1.986-4.065-.507-6.525s4.117-3.525 5.886-2.385ZM15 27c3.625 0 11.6-7.71 11.6-13.5S21.394 3 15 3C8.605 3 3.4 7.71 3.4 13.5S11.375 27 15 27Zm0-27c7.975 0 14.5 6.06 14.5 13.5C29.5 19.62 21.264 30 15 30 8.736 30 .5 19.62.5 13.5.5 6.06 7.025 0 15 0Z" fill="#02E4C0"/></svg><svg fill="none" viewBox="0 0 42 19" id="featur_icon_3" xmlns="http://www.w3.org/2000/svg"><path d="M32.275 0c-2.46 0-4.783.989-6.44 2.702L13.825 13.72a5.654 5.654 0 0 1-4.1 1.748c-3.195 0-5.808-2.666-5.808-5.968S6.53 3.532 9.725 3.532c1.555 0 3.007.618 4.168 1.818l1.93 1.766 2.614-2.366-2.186-1.96A9.16 9.16 0 0 0 13.258.72 8.915 8.915 0 0 0 9.725 0C4.635 0 .5 4.273.5 9.5S4.634 19 9.725 19c2.46 0 4.783-.989 6.44-2.702L28.175 5.28a5.654 5.654 0 0 1 4.1-1.748c3.195 0 5.808 2.666 5.808 5.968s-2.613 5.968-5.808 5.968c-1.537 0-3.007-.618-4.168-1.818l-1.982-1.784-2.563 2.366 2.187 1.978a9.185 9.185 0 0 0 2.996 2.058c1.12.476 2.32.719 3.53.714 5.09 0 9.225-4.255 9.225-9.482 0-5.297-4.134-9.5-9.225-9.5Z" fill="#02E4C0"/></svg><svg fill="none" viewBox="0 0 66 53" id="menu_button" xmlns="http://www.w3.org/2000/svg"><path d="M11 13.25h44v4.417H11V13.25Zm11 11.042h33v4.416H22v-4.416Zm13.75 11.041H55v4.417H35.75v-4.417Z" fill="#fff"/></svg></svg>